<svg width="60" height="59" viewBox="0 0 60 59" fill="none" xmlns="http://www.w3.org/2000/svg">
<path d="M51 20V44C51 49.658 51 52.484 49.242 54.242C47.484 56 44.658 56 39 56H21C15.342 56 12.516 56 10.758 54.242C9 52.484 9 49.658 9 44V20" stroke="white" stroke-width="5" stroke-linecap="round" stroke-linejoin="round"/>
<path d="M3 24.8751L16.5 12.8751L26.013 4.41813C27.1114 3.4414 28.5301 2.90186 30 2.90186C31.4699 2.90186 32.8886 3.4414 33.987 4.41813L43.5 12.8751L57 24.8751M24 54.8751V42.8751C24 41.2838 24.6321 39.7577 25.7574 38.6325C26.8826 37.5073 28.4087 36.8751 30 36.8751C31.5913 36.8751 33.1174 37.5073 34.2426 38.6325C35.3679 39.7577 36 41.2838 36 42.8751V54.8751" stroke="white" stroke-width="5" stroke-linecap="round" stroke-linejoin="round"/>
</svg>
