<svg width="60" height="60" viewBox="0 0 60 60" fill="none" xmlns="http://www.w3.org/2000/svg">
<path d="M24.765 6.56397C24.4699 7.26824 24.0358 7.90579 23.4888 8.43855C22.9417 8.97131 22.2929 9.38834 21.5811 9.66473C20.8693 9.94111 20.109 10.0712 19.3458 10.0472C18.5826 10.0232 17.832 9.84556 17.139 9.52497C12.309 7.29597 7.29897 12.309 9.52497 17.139C10.875 20.061 9.53397 23.529 6.56397 24.765C1.91097 26.703 1.91097 33.297 6.56397 35.235C7.26824 35.5301 7.90579 35.9641 8.43855 36.5112C8.97131 37.0582 9.38834 37.707 9.66473 38.4189C9.94111 39.1307 10.0712 39.8909 10.0472 40.6541C10.0232 41.4174 9.84556 42.1679 9.52497 42.861C7.29597 47.691 12.309 52.701 17.139 50.475C17.8321 50.1548 18.5826 49.9775 19.3457 49.9537C20.1088 49.9299 20.8689 50.0601 21.5806 50.3364C22.2923 50.6128 22.9411 51.0297 23.4882 51.5622C24.0353 52.0947 24.4695 52.732 24.765 53.436C26.703 58.089 33.297 58.089 35.235 53.436C35.5301 52.7317 35.9641 52.0941 36.5112 51.5614C37.0582 51.0286 37.707 50.6116 38.4189 50.3352C39.1307 50.0588 39.8909 49.9288 40.6541 49.9528C41.4174 49.9768 42.1679 50.1544 42.861 50.475C47.691 52.704 52.701 47.691 50.475 42.861C50.1544 42.1679 49.9768 41.4174 49.9528 40.6541C49.9288 39.8909 50.0588 39.1307 50.3352 38.4189C50.6116 37.707 51.0286 37.0582 51.5614 36.5112C52.0941 35.9641 52.7317 35.5301 53.436 35.235C58.089 33.297 58.089 26.703 53.436 24.765C52.732 24.4695 52.0947 24.0353 51.5622 23.4882C51.0297 22.9411 50.6128 22.2923 50.3364 21.5806C50.0601 20.8689 49.9299 20.1088 49.9537 19.3457C49.9775 18.5826 50.1548 17.8321 50.475 17.139C52.704 12.309 47.691 7.29897 42.861 9.52497C39.942 10.875 36.471 9.53397 35.235 6.56397C33.297 1.91097 26.703 1.91097 24.765 6.56397Z" stroke="white" stroke-width="5" stroke-linecap="round" stroke-linejoin="round"/>
<path d="M39 30C39 32.3869 38.0518 34.6761 36.364 36.364C34.6761 38.0518 32.3869 39 30 39C27.6131 39 25.3239 38.0518 23.636 36.364C21.9482 34.6761 21 32.3869 21 30C21 27.6131 21.9482 25.3239 23.636 23.636C25.3239 21.9482 27.6131 21 30 21C32.3869 21 34.6761 21.9482 36.364 23.636C38.0518 25.3239 39 27.6131 39 30Z" stroke="white" stroke-width="5" stroke-linecap="round" stroke-linejoin="round"/>
</svg>
