<svg width="72" height="72" viewBox="0 0 72 72" fill="none" xmlns="http://www.w3.org/2000/svg">
<path d="M36 36H60M45 45L36.261 36.261C36.2267 36.2267 36.1995 36.186 36.181 36.1413C36.1624 36.0965 36.1528 36.0485 36.1528 36C36.1528 35.9515 36.1624 35.9035 36.181 35.8587C36.1995 35.814 36.2267 35.7733 36.261 35.739L45 27" stroke="white" stroke-width="5" stroke-linecap="round" stroke-linejoin="round"/>
<path d="M55 15V13.5C55 12.3065 54.5259 11.1619 53.682 10.318C52.8381 9.47411 51.6935 9 50.5 9H22C20.4087 9 18.8826 9.63214 17.7574 10.7574C16.6321 11.8826 16 13.4087 16 15V57C16 58.5913 16.6321 60.1174 17.7574 61.2426C18.8826 62.3679 20.4087 63 22 63H50.5C51.6935 63 52.8381 62.5259 53.682 61.682C54.5259 60.8381 55 59.6935 55 58.5V57" stroke="white" stroke-width="5" stroke-linecap="round" stroke-linejoin="round"/>
</svg>
