<svg width="44" height="54" viewBox="0 0 44 54" fill="none" xmlns="http://www.w3.org/2000/svg">
<path d="M30.0006 3C35.03 3 37.542 3 39.1046 4.56267C40.6673 6.12533 40.6673 8.63733 40.6673 13.6667V40.3333C40.6673 45.3627 40.6673 47.8747 39.1046 49.4373C37.542 51 35.03 51 30.0006 51H14.0007C8.97132 51 6.45932 51 4.89665 49.4373C3.33398 47.8747 3.33398 45.3627 3.33398 40.3333V13.6667C3.33398 8.63733 3.33398 6.12533 4.89665 4.56267C6.45932 3 8.97132 3 14.0007 3H30.0006Z" stroke="#393E46" stroke-width="5" stroke-linecap="round" stroke-linejoin="round"/>
<path d="M14 3V11C14 12.4145 14.5619 13.771 15.5621 14.7712C16.5623 15.7714 17.9188 16.3333 19.3333 16.3333H24.6667C26.0812 16.3333 27.4377 15.7714 28.4379 14.7712C29.4381 13.771 30 12.4145 30 11V3" stroke="#393E46" stroke-width="5" stroke-linecap="round" stroke-linejoin="round"/>
</svg>
