<svg width="54" height="44" viewBox="0 0 54 44" fill="none" xmlns="http://www.w3.org/2000/svg">
<path d="M3 11.3333C3 8.84792 3 7.60525 3.40533 6.62659C3.67337 5.97907 4.06639 5.39072 4.56193 4.89518C5.05747 4.39964 5.64582 4.00662 6.29333 3.73859C7.272 3.33325 8.51467 3.33325 11 3.33325H43C45.4853 3.33325 46.728 3.33325 47.7067 3.73859C48.3542 4.00662 48.9425 4.39964 49.4381 4.89518C49.9336 5.39072 50.3266 5.97907 50.5947 6.62659C51 7.60525 51 8.84792 51 11.3333V32.6666C51 35.1519 51 36.3946 50.5947 37.3732C50.3266 38.0208 49.9336 38.6091 49.4381 39.1047C48.9425 39.6002 48.3542 39.9932 47.7067 40.2612C46.728 40.6666 45.4853 40.6666 43 40.6666H11C8.51467 40.6666 7.272 40.6666 6.29333 40.2612C5.64582 39.9932 5.05747 39.6002 4.56193 39.1047C4.06639 38.6091 3.67337 38.0208 3.40533 37.3732C3 36.3946 3 35.1519 3 32.6666V11.3333Z" stroke="#393E46" stroke-width="5" stroke-linecap="round" stroke-linejoin="round"/>
<path d="M5.66602 6L23.4873 21.5947C24.4596 22.4453 25.7075 22.9142 26.9993 22.9142C28.2912 22.9142 29.5391 22.4453 30.5114 21.5947L48.3327 6" stroke="#393E46" stroke-width="5" stroke-linecap="round" stroke-linejoin="round"/>
</svg>
