<svg width="42" height="54" viewBox="0 0 42 54" fill="none" xmlns="http://www.w3.org/2000/svg">
<path d="M12.9991 43C12.9991 43 12.9991 51 21.1218 51C29.2471 51 29.2471 43 29.2471 43M7.65513 15.5493L3.56447 36.6507C3.41465 37.4227 3.43742 38.2183 3.63115 38.9805C3.82487 39.7426 4.18475 40.4526 4.68502 41.0593C5.18528 41.6661 5.81354 42.1548 6.5248 42.4903C7.23606 42.8258 8.01271 42.9999 8.79913 43H33.1991C33.9853 42.9998 34.7617 42.8258 35.4727 42.4904C36.1837 42.1551 36.8118 41.6667 37.312 41.0602C37.8122 40.4537 38.1722 39.7442 38.3661 38.9823C38.5601 38.2205 38.5832 37.4252 38.4338 36.6533L34.3405 15.5493C34.3349 15.5181 34.3287 15.487 34.3218 15.456C34.1351 14.64 31.2925 3 20.9991 3C10.7058 3 7.86313 14.64 7.67647 15.4533C7.66879 15.4852 7.66168 15.5172 7.65513 15.5493Z" stroke="#393E46" stroke-width="5" stroke-linecap="round" stroke-linejoin="round"/>
</svg>
