<svg width="50" height="60" viewBox="0 0 50 60" fill="none" xmlns="http://www.w3.org/2000/svg">
<path d="M23 30H47M32 39L23.261 30.261C23.2267 30.2267 23.1995 30.186 23.181 30.1413C23.1624 30.0965 23.1528 30.0485 23.1528 30C23.1528 29.9515 23.1624 29.9035 23.181 29.8587C23.1995 29.814 23.2267 29.7733 23.261 29.739L32 21" stroke="white" stroke-width="5" stroke-linecap="round" stroke-linejoin="round"/>
<path d="M42 9V7.5C42 6.30653 41.5259 5.16193 40.682 4.31802C39.8381 3.47411 38.6935 3 37.5 3H9C7.4087 3 5.88258 3.63214 4.75736 4.75736C3.63214 5.88258 3 7.4087 3 9V51C3 52.5913 3.63214 54.1174 4.75736 55.2426C5.88258 56.3679 7.4087 57 9 57H37.5C38.6935 57 39.8381 56.5259 40.682 55.682C41.5259 54.8381 42 53.6935 42 52.5V51" stroke="white" stroke-width="5" stroke-linecap="round" stroke-linejoin="round"/>
</svg>
