<svg width="58" height="54" viewBox="0 0 58 54" fill="none" xmlns="http://www.w3.org/2000/svg">
<path d="M27.698 3.72304L3.92904 16.929C3.73853 17.0355 3.57988 17.1909 3.46944 17.3792C3.359 17.5675 3.30078 17.7818 3.30078 18C3.30078 18.2183 3.359 18.4326 3.46944 18.6209C3.57988 18.8091 3.73853 18.9645 3.92904 19.071L27.695 32.277C28.505 32.727 29.495 32.727 30.305 32.277L54.713 18.717C54.8412 18.6463 54.9481 18.5424 55.0225 18.4163C55.097 18.2902 55.1362 18.1465 55.1362 18C55.1362 17.8536 55.097 17.7099 55.0225 17.5838C54.9481 17.4576 54.8412 17.3538 54.713 17.283L30.302 3.72304C29.9036 3.50213 29.4556 3.38623 29 3.38623C28.5445 3.38623 28.0964 3.50213 27.698 3.72304Z" stroke="white" stroke-width="5" stroke-linecap="round" stroke-linejoin="round"/>
<path d="M9.50005 22.5L8.39305 36.87C8.16805 39.822 10.1271 42.492 12.9831 43.278C14.8521 43.794 16.9071 44.406 18.5001 45C20.7951 45.855 23.3391 47.298 25.3461 48.552C26.4432 49.2328 27.7088 49.5936 29.0001 49.5936C30.2913 49.5936 31.5569 49.2328 32.6541 48.552C34.6641 47.298 37.2051 45.855 39.5001 45C41.3157 44.3506 43.1572 43.7761 45.0201 43.278C47.8701 42.492 49.8321 39.822 49.6071 36.873L48.5001 22.5" stroke="white" stroke-width="5" stroke-linecap="round" stroke-linejoin="round"/>
<path d="M27.5 22.5L20.024 26.772C19.1052 27.2968 18.3416 28.0553 17.8105 28.9704C17.2794 29.8856 16.9998 30.9249 17 31.983V51" stroke="white" stroke-width="5" stroke-linecap="round" stroke-linejoin="round"/>
</svg>
